<svg width="26" height="35" viewBox="0 0 26 35" fill="none" xmlns="http://www.w3.org/2000/svg">
<path d="M1.57422 7.3019C1.57422 6.74962 2.02193 6.3019 2.57422 6.3019H22.6305C23.1828 6.3019 23.6305 6.74962 23.6305 7.3019V30.66C23.6305 32.8691 21.8396 34.66 19.6305 34.66H5.57422C3.36508 34.66 1.57422 32.8691 1.57422 30.66V7.3019Z" fill="white"/>
<rect y="3.15063" width="25.2072" height="3.1509" rx="1" fill="white"/>
<rect x="7.09082" y="-3.8147e-05" width="11.0281" height="3.1509" rx="1" fill="white"/>
<rect x="8.66504" y="1.57571" width="7.87724" height="1.57545" fill="#D72130"/>
<rect x="4.72461" y="8.665" width="1.57545" height="22.0563" rx="0.787724" fill="#D72130"/>
<rect x="11.8164" y="8.665" width="1.57545" height="22.0563" rx="0.787724" fill="#D72130"/>
<rect x="18.9043" y="8.665" width="1.57545" height="22.0563" rx="0.787724" fill="#D72130"/>
</svg>
